<svg width="1225" height="286" viewBox="0 0 1225 286" fill="none" xmlns="http://www.w3.org/2000/svg">
<path d="M0.00976562 5.82936V281.977H97.4175C179.707 281.977 228.124 230.69 228.124 143.425C228.124 56.3512 179.516 5.82936 97.4175 5.82936H0.00976562ZM42.8768 42.7639H93.3987C151.767 42.7639 184.3 78.7416 184.3 143.808C184.3 209.065 151.958 244.851 93.3987 244.851H42.8768V42.7639Z" fill="white"/>
<path d="M342.762 285.805C400.365 285.805 438.257 246.191 438.257 181.316C438.257 116.633 400.174 77.0193 342.762 77.0193C285.351 77.0193 247.268 116.633 247.268 181.316C247.268 246.191 285.16 285.805 342.762 285.805ZM342.762 251.741C310.421 251.741 289.37 226.097 289.37 181.316C289.37 136.727 310.421 111.083 342.762 111.083C375.104 111.083 396.155 136.727 396.155 181.316C396.155 226.097 375.296 251.741 342.762 251.741Z" fill="white"/>
<path d="M462.377 281.977H503.713V157.586C503.713 131.751 521.128 112.614 545.623 112.614C568.97 112.614 583.706 127.35 583.706 150.506V281.977H624.276V156.247C624.276 130.794 641.308 112.614 665.804 112.614C690.299 112.614 704.269 127.541 704.269 153.568V281.977H745.797V143.616C745.797 103.62 719.771 77.2107 679.965 77.2107C651.26 77.2107 627.53 92.1376 617.196 116.633H616.239C608.201 91.5635 587.916 77.2107 559.976 77.2107C532.801 77.2107 511.75 92.1376 502.756 114.528H501.799V80.6553H462.377V281.977Z" fill="white"/>
<path d="M836.897 285.422C863.306 285.422 888.759 271.261 900.432 248.87H901.389V281.977H941.003V143.234C941.003 102.854 909.809 77.0193 861.01 77.0193C811.253 77.0193 780.251 103.811 777.955 140.172H816.995C820.631 122.183 835.557 110.701 859.479 110.701C884.74 110.701 899.858 124.096 899.858 146.487V161.988L844.743 165.241C796.901 167.92 769.917 189.545 769.917 224.758C769.917 260.927 797.475 285.422 836.897 285.422ZM848.379 252.698C826.18 252.698 811.636 241.215 811.636 223.609C811.636 206.386 825.606 195.478 850.293 193.755L899.858 190.694V206.577C899.858 232.795 877.276 252.698 848.379 252.698Z" fill="white"/>
<path d="M995.36 48.1223C1008.56 48.1223 1019.09 37.4055 1019.09 24.3923C1019.09 11.1877 1008.56 0.662354 995.36 0.662354C982.155 0.662354 971.438 11.1877 971.438 24.3923C971.438 37.4055 982.155 48.1223 995.36 48.1223ZM974.692 281.977H1016.03V80.6553H974.692V281.977Z" fill="white"/>
<path d="M1050.48 281.977H1091.82V164.667C1091.82 133.474 1110.57 112.806 1139.66 112.806C1168.37 112.806 1182.53 129.455 1182.53 159.691V281.977H1224.06V151.654C1224.06 105.534 1198.6 77.2107 1154.21 77.2107C1123.2 77.2107 1101.77 91.3721 1090.86 114.337H1089.9V80.6553H1050.48V281.977Z" fill="white"/>
</svg>
