<svg width="280" height="53" viewBox="0 0 280 53" fill="none" xmlns="http://www.w3.org/2000/svg">
<path d="M0.105469 6.55605V46.1237C0.105469 49.6702 3.05515 52.5467 6.69196 52.5467C10.3288 52.5467 13.2785 49.6702 13.2785 46.1237V18.7483C13.2785 15.2018 16.2281 12.3253 19.865 12.3253H19.9152C23.5521 12.3253 26.5017 15.2018 26.5017 18.7483V20.5624C26.5017 24.109 29.4514 26.9854 33.0882 26.9854H33.658C37.2949 26.9854 40.2445 24.109 40.2445 20.5624V18.7483C40.2445 15.2018 43.1942 12.3253 46.831 12.3253H46.8813C50.5181 12.3253 53.4678 15.2018 53.4678 18.7483V46.1237C53.4678 49.6702 56.4175 52.5467 60.0543 52.5467H60.1549C63.7917 52.5467 66.7414 49.6702 66.7414 46.1237V6.55605C66.7414 3.00951 63.7917 0.133057 60.1549 0.133057H6.69196C3.05515 0.133057 0.105469 3.00951 0.105469 6.55605Z" fill="white"/>
<path d="M26.5013 44.3089V46.123C26.5013 49.6695 29.451 52.546 33.0878 52.546H33.6576C37.2945 52.546 40.2441 49.6695 40.2441 46.123V44.3089C40.2441 40.7623 37.2945 37.8859 33.6576 37.8859H33.0878C29.451 37.8859 26.5013 40.7623 26.5013 44.3089Z" fill="white"/>
<path d="M134.036 45.7836V7.66223H127.183L114.9 38.0431H114.689L102.379 7.66223H95.5519V45.7836H100.929V17.7275H101.114L112.606 45.7836H116.982L128.448 17.7275H128.633V45.7836H134.036Z" fill="white"/>
<path d="M148.283 46.2591C151.92 46.2591 155.426 44.3042 157.034 41.2133H157.166V45.7836H162.622V26.6305C162.622 21.0562 158.326 17.4898 151.604 17.4898C144.751 17.4898 140.481 21.1883 140.164 26.2078H145.541C146.042 23.7245 148.098 22.1394 151.393 22.1394C154.873 22.1394 156.955 23.9886 156.955 27.0796V29.2194L149.364 29.6686C142.774 30.0384 139.057 33.0237 139.057 37.8846C139.057 42.8776 142.853 46.2591 148.283 46.2591ZM149.864 41.7416C146.807 41.7416 144.803 40.1566 144.803 37.7261C144.803 35.3485 146.728 33.8426 150.128 33.6049L156.955 33.1822V35.3749C156.955 38.9942 153.845 41.7416 149.864 41.7416Z" fill="white"/>
<path d="M170.358 11.4136V17.9917H166.325V22.5092H170.358V38.4658C170.358 43.8287 172.546 45.9685 178.16 45.9685C179.426 45.9685 180.691 45.8629 181.323 45.7044V41.1869C180.954 41.2661 180.032 41.319 179.452 41.319C177.132 41.319 176.078 40.2358 176.078 37.8318V22.5092H181.35V17.9917H176.078V11.4136H170.358Z" fill="white"/>
<path d="M204.269 37.6204C203.504 40.0509 201.105 41.6888 197.863 41.6888C193.303 41.6888 190.404 38.4922 190.404 33.6577V33.3143H209.988V31.3593C209.988 22.9319 205.191 17.4898 197.494 17.4898C189.666 17.4898 184.657 23.3018 184.657 32.0198C184.657 40.7906 189.587 46.312 197.732 46.312C204.084 46.312 208.881 42.6927 209.672 37.6204H204.269ZM197.494 22.0865C201.474 22.0865 204.163 25.0718 204.295 29.3251H190.43C190.72 25.1246 193.514 22.0865 197.494 22.0865Z" fill="white"/>
<path d="M214.957 45.7836H220.65V29.1402C220.65 25.2039 222.917 22.747 226.581 22.747C227.688 22.747 228.69 22.8791 229.138 23.064V17.754C228.716 17.6747 228.004 17.5426 227.187 17.5426C223.919 17.5426 221.441 19.4711 220.518 22.7206H220.387V17.9917H214.957V45.7836Z" fill="white"/>
<path d="M236.241 13.5006C238.06 13.5006 239.51 12.0212 239.51 10.2248C239.51 8.40194 238.06 6.94894 236.241 6.94894C234.422 6.94894 232.946 8.40194 232.946 10.2248C232.946 12.0212 234.422 13.5006 236.241 13.5006ZM233.394 45.7836H239.088V17.9917H233.394V45.7836Z" fill="white"/>
<path d="M253.572 46.2591C257.209 46.2591 260.715 44.3042 262.323 41.2133H262.455V45.7836H267.911V26.6305C267.911 21.0562 263.615 17.4898 256.893 17.4898C250.04 17.4898 245.769 21.1883 245.453 26.2078H250.83C251.331 23.7245 253.387 22.1394 256.682 22.1394C260.162 22.1394 262.244 23.9886 262.244 27.0796V29.2194L254.652 29.6686C248.063 30.0384 244.346 33.0237 244.346 37.8846C244.346 42.8776 248.142 46.2591 253.572 46.2591ZM255.153 41.7416C252.096 41.7416 250.092 40.1566 250.092 37.7261C250.092 35.3485 252.017 33.8426 255.417 33.6049L262.244 33.1822V35.3749C262.244 38.9942 259.134 41.7416 255.153 41.7416Z" fill="white"/>
<path d="M274.197 45.7836H279.891V7.66223H274.197V45.7836Z" fill="white"/>
</svg>
