<svg width="1042" height="281" viewBox="0 0 1042 281" fill="none" xmlns="http://www.w3.org/2000/svg">
<path d="M279.712 276.81V0.662354H229.955L140.777 220.739H139.246L49.8756 0.662354H0.310547V276.81H39.3502V73.5746H40.6898L124.127 276.81H155.895L239.141 73.5746H240.481V276.81H279.712Z" fill="black"/>
<path d="M371.386 280.255C397.795 280.255 423.248 266.094 434.921 243.703H435.878V276.81H475.492V138.067C475.492 97.6873 444.298 71.8523 395.499 71.8523C345.742 71.8523 314.74 98.6442 312.444 135.005H351.484C355.12 117.016 370.047 105.534 393.968 105.534C419.229 105.534 434.347 118.929 434.347 141.32V156.821L379.232 160.074C331.39 162.753 304.406 184.378 304.406 219.591C304.406 255.76 331.964 280.255 371.386 280.255ZM382.868 247.531C360.669 247.531 346.125 236.048 346.125 218.442C346.125 201.219 360.095 190.311 384.782 188.588L434.347 185.527V201.41C434.347 227.628 411.765 247.531 382.868 247.531Z" fill="black"/>
<path d="M519.897 27.837V75.4883H490.618V108.213H519.897V223.801C519.897 262.649 535.781 278.15 576.543 278.15C585.729 278.15 594.915 277.384 599.508 276.236V243.512C596.829 244.086 590.131 244.469 585.92 244.469C569.08 244.469 561.425 236.623 561.425 219.208V108.213H599.699V75.4883H561.425V27.837H519.897Z" fill="black"/>
<path d="M637.981 27.837V75.4883H608.701V108.213H637.981V223.801C637.981 262.649 653.865 278.15 694.627 278.15C703.812 278.15 712.998 277.384 717.591 276.236V243.512C714.912 244.086 708.214 244.469 704.004 244.469C687.163 244.469 679.508 236.623 679.508 219.208V108.213H717.783V75.4883H679.508V27.837H637.981Z" fill="black"/>
<path d="M872.418 217.677C866.868 235.283 849.453 247.148 825.915 247.148C792.808 247.148 771.757 223.992 771.757 188.971V186.483H913.945V172.322C913.945 111.275 879.116 71.8523 823.235 71.8523C766.398 71.8523 730.038 113.954 730.038 177.106C730.038 240.641 765.824 280.638 824.958 280.638C871.078 280.638 905.908 254.42 911.649 217.677H872.418ZM823.235 105.151C852.132 105.151 871.652 126.776 872.609 157.586H771.948C774.053 127.158 794.339 105.151 823.235 105.151Z" fill="black"/>
<path d="M938.257 276.81H979.593V156.247C979.593 127.733 996.051 109.935 1022.65 109.935C1030.69 109.935 1037.96 110.892 1041.21 112.232V73.766C1038.15 73.1919 1032.99 72.235 1027.05 72.235C1003.32 72.235 985.334 86.2051 978.636 109.744H977.679V75.4883H938.257V276.81Z" fill="black"/>
</svg>
