<svg width="1164" height="291" viewBox="0 0 1164 291" fill="none" xmlns="http://www.w3.org/2000/svg">
<path d="M0.5 13.0555V288.184H43.1582V194.186H106.765C160.659 194.186 198.746 157.198 198.746 103.43C198.746 49.8537 161.42 13.0555 108.098 13.0555H0.5ZM43.1582 49.091H96.8619C133.997 49.091 155.136 68.9201 155.136 103.621C155.136 138.322 133.807 158.342 96.8619 158.342H43.1582V49.091Z" fill="black"/>
<path d="M311.867 290.662C371.665 290.662 409.562 249.86 409.562 184.653C409.562 119.446 371.474 78.4533 311.867 78.4533C252.26 78.4533 213.982 119.637 213.982 184.653C213.982 249.86 252.069 290.662 311.867 290.662ZM311.867 256.343C276.826 256.343 255.878 229.841 255.878 184.653C255.878 139.656 276.826 112.773 311.867 112.773C346.908 112.773 367.665 139.466 367.665 184.653C367.665 229.841 346.908 256.343 311.867 256.343Z" fill="black"/>
<path d="M442.698 288.184H484.023V164.633C484.023 135.462 501.163 116.586 528.395 116.586C536.584 116.586 543.821 117.73 547.249 119.065V80.3599C544.011 79.5973 538.87 79.0253 532.775 79.0253C508.399 79.0253 489.355 92.9437 482.881 116.014H482.119V81.1226H442.698V288.184Z" fill="black"/>
<path d="M593.899 34.6006V81.1226H565.333V113.726H593.899V233.654C593.899 273.693 609.895 289.518 651.221 289.518C660.171 289.518 669.884 288.565 674.454 287.421V254.818C671.788 255.199 664.742 255.771 660.362 255.771C643.032 255.771 635.033 247.382 635.033 229.459V113.726H674.645V81.1226H635.033V34.6006H593.899Z" fill="black"/>
<path d="M779.767 257.296C755.962 257.296 740.536 245.856 740.536 228.125C740.536 209.821 755.2 199.334 783.385 197.618L833.661 194.186V210.393C833.661 237.658 810.427 257.296 779.767 257.296ZM768.721 290.281C796.906 290.281 822.615 276.172 834.041 253.674H834.994V288.184H874.414V146.139C874.414 105.146 841.849 78.4533 791.383 78.4533C744.916 78.4533 710.256 105.528 709.114 142.135H747.773C751.391 124.213 767.769 112.582 790.241 112.582C817.854 112.582 833.661 125.547 833.661 149.19V165.205L777.862 168.447C726.825 171.688 698.83 192.661 698.83 228.887C698.83 265.876 727.396 290.281 768.721 290.281Z" fill="black"/>
<path d="M917.644 288.184H958.969V0.662354H917.644V288.184Z" fill="black"/>
<path d="M999.723 140.038C999.723 168.637 1018.2 187.704 1055.52 196.856L1092.47 206.008C1114.18 211.537 1122.37 218.401 1122.37 231.557C1122.37 248.335 1106.18 259.012 1080.47 259.012C1054.19 259.012 1038.19 248.144 1034.95 228.315H994.2C997.247 265.685 1030.19 290.662 1078.37 290.662C1128.46 290.662 1163.5 265.113 1163.5 228.125C1163.5 197.618 1148.07 182.556 1106.37 172.451L1072.09 164.252C1050.19 158.913 1039.91 150.334 1039.91 137.75C1039.91 121.353 1055.52 110.485 1078.95 110.485C1102.56 110.485 1118.37 121.925 1120.08 140.228H1158.93C1157.98 104.193 1125.22 78.6439 1079.9 78.6439C1032.29 78.6439 999.723 103.621 999.723 140.038Z" fill="black"/>
</svg>
